<!-- <?xml version="1.0" encoding="UTF-8"?> -->
<svg xmlns="http://www.w3.org/2000/svg" viewBox="0 0 99.7284 121.7579">
  <g id="a" data-name="Layer 3">
    <path d="M33.4609,92.8981h20.7516v8.5605c0,1.1186-.9068,2.0255-2.0255,2.0255h-16.7006c-1.1186,0-2.0255-.9068-2.0255-2.0255v-8.5605Z"/>
    <rect x="33.4609" y="85.4267" width="20.7516" height="6.535"/>
    <rect x="33.4609" y="30.6433" width="20.7516" height="53.8662"/>
    <rect x="33.4609" y="23.4968" width="20.7516" height="6.2293"/>
    <path d="M33.4609,22.5414v-6.6879c0-1.0975.8897-1.9873,1.9873-1.9873h16.7771c1.0975,0,1.9873.8897,1.9873,1.9873v6.6879h-20.7516Z"/>
  </g>
  <g id="b" data-name="Layer 2">
    <path d="M7.2252,35.5541h24.8281v48.9554H7.2252v-48.9554ZM15.1551,54.7579h9.535c1.1503,0,2.0828-.9325,2.0828-2.0828v-9.3631c0-1.1503-.9325-2.0828-2.0828-2.0828h-9.535c-1.1503,0-2.0828.9325-2.0828,2.0828v9.3631c0,1.1503.9325,2.0828,2.0828,2.0828Z"/>
    <rect x="7.2252" y="85.4267" width="24.8281" height="6.535"/>
    <path d="M7.2252,34.4267h24.8281v-6.5255c0-1.1028-.894-1.9968-1.9968-1.9968H9.222c-1.1028,0-1.9968.894-1.9968,1.9968v6.5255Z"/>
    <path d="M7.3908,92.8981h24.4968c.0915,0,.1656.0742.1656.1656v8.4299c0,1.0993-.8912,1.9905-1.9905,1.9905H9.2157c-1.0993,0-1.9905-.8912-1.9905-1.9905v-8.4299c0-.0915.0742-.1656.1656-.1656Z"/>
  </g>
  <g id="c" data-name="Layer 4">
    <path d="M69.2366,94.1429l26.1828-6.5281c.0978-.0244.1941.0242.2151.1084l1.9362,7.7655c.2525,1.0127-.4953,2.0711-1.6703,2.3641l-22.282,5.5555c-1.175.293-2.3322-.2905-2.5847-1.3032l-1.9362-7.7655c-.021-.0843.0412-.1724.139-.1967Z"/>
    <path d="M56.3703,43.2931l26.5369-6.6164-2.0657-8.285c-.3491-1.4002-1.5876-2.297-2.7663-2.0031l-22.2684,5.5521c-1.1787.2939-1.8512,1.6672-1.5022,3.0673l2.0657,8.285Z"/>
    <rect x="67.4771" y="82.1882" width="27.3493" height="7.9462" transform="translate(-18.4337 22.1916) rotate(-13.9999)"/>
    <rect x="56.912" y="40.884" width="27.3493" height="5.5242" transform="translate(-8.4622 18.3729) rotate(-13.9999)"/>
    <rect x="62.0383" y="46.8767" width="27.3493" height="34.941" transform="translate(-13.318 20.2279) rotate(-13.9999)"/>
  </g>
</svg>